PathFileType	4	(X/Y/Z)	Patient4_TMGait_0pt8_01_right_42.trc.trc
DataRate	CameraRate	NumFrames	NumMarkers	Units	OrigDataRate	OrigDataStartFrame	OrigNumFrames
89.171974522293	89.171974522293	4	33	mm	89.171974522293	53	       141
Frame#	Time	Sacral			L.Shoulder			Chest			R.Shoulder			Neck			R.ASIS			L.ASIS			R.Thigh.Superior			R.Thigh.Lateral			R.Thigh.Inferior			R.Patella			L.Thigh.Superior			L.Thigh.Lateral			L.Thigh.Inferior			L.Patella			L.Shank.Superior			L.Shank.Lateral			L.Shank.Inferior			R.Shank.Superior			R.Shank.Lateral			R.Shank.Inferior			R.Heel			R.Midfoot.Superior			R.Midfoot.Lateral			R.Toe			L.Heel			L.Midfoot.Lateral			L.Midfoot.Superior			L.Toe			L.Elbow			L.Wrist			R.Elbow			R.Wrist			
		X1	Y1	Z1	X2	Y2	Z2	X3	Y3	Z3	X4	Y4	Z4	X5	Y5	Z5	X6	Y6	Z6	X7	Y7	Z7	X8	Y8	Z8	X9	Y9	Z9	X10	Y10	Z10	X11	Y11	Z11	X12	Y12	Z12	X13	Y13	Z13	X14	Y14	Z14	X15	Y15	Z15	X16	Y16	Z16	X17	Y17	Z17	X18	Y18	Z18	X19	Y19	Z19	X20	Y20	Z20	X21	Y21	Z21	X22	Y22	Z22	X23	Y23	Z23	X24	Y24	Z24	X25	Y25	Z25	X26	Y26	Z26	X27	Y27	Z27	X28	Y28	Z28	X29	Y29	Z29	X30	Y30	Z30	X31	Y31	Z31	X32	Y32	Z32	X33	Y33	Z33	

53	47.763142857143	909.193669553890	1012.085406372461	525.585770660347	1063.645967894516	1436.694458389831	323.169275057249	1188.975751565437	1367.677237511297	467.999318773347	1132.423855512817	1440.911460220742	653.144675602505	1071.451038362173	1498.196609150675	480.323189359282	1146.267403087246	946.203766280379	614.336697969391	1100.373877237603	966.566564798608	344.064872531993	1168.005993001772	738.978849005834	585.172562654107	1079.799465960895	635.096476737350	649.405953064441	1146.641803165981	577.425260272935	566.214000087710	1139.055552750945	490.064700766713	571.139699831558	1193.790025860280	793.845184865229	368.571663353621	1150.458257191280	663.418272280396	293.480595782206	1262.505987975942	607.193406361090	343.927122584554	1282.223235090622	521.950529382119	336.059889266753	1228.726134809600	447.878951281401	330.269260324595	1097.303552174519	376.298005638910	289.418496329443	1119.727526725609	245.609023381095	338.284835216363	1107.594021839976	403.746828154421	577.993556469469	1033.366911948309	302.729938638024	639.396376595256	1069.153944581750	206.657234583673	573.247153342219	926.852846098032	45.546138788670	543.886905504954	1098.842430529992	96.912348295113	578.773234532719	1010.411677729705	38.376407464472	617.647766154013	1218.464576879382	41.685992061915	606.789454356112	953.463069753452	138.851767964012	386.053525090884	1013.121068975774	108.679103916789	300.380259137828	1115.565351216328	138.508630295055	315.755506156710	1212.309520933324	46.593095991370	277.680946609612	1013.401417037355	1080.109021020761	227.034161020064	1080.605160270973	826.938081079104	220.699255315744	1185.971345084860	1095.704229623620	774.026847418224	1402.220167684709	956.202645242420	738.506900723014	
54	47.774357142857	908.299000231725	1012.456114542450	526.346487642622	1062.556282609945	1436.001632132987	323.032138157005	1188.552770870736	1367.203466502359	467.375659278185	1133.281245626460	1441.217378487929	652.591598444144	1071.343701572612	1497.969088729885	479.995510750683	1145.281333850731	945.798524288863	614.863284286011	1098.978126420582	966.503674052091	344.523116185265	1164.133854430737	737.931977687201	585.274262505561	1074.594082872052	635.012337646169	649.896107416735	1140.207071622564	576.437199900134	566.716216369921	1131.370231890241	489.574368846459	571.592683255804	1192.826419562453	795.142157175838	368.969555297293	1150.496397523422	664.310400400800	293.675081749112	1262.547915829433	608.910719044100	344.453432204693	1283.827221521104	525.424569063440	336.417161228628	1234.391571275411	450.285829005852	330.157816454194	1108.155297826887	370.394954045789	288.940806208345	1139.532466268570	241.058347008672	337.106447271957	1099.729370239319	403.523652467479	578.424191108163	1025.095706103851	302.696983626820	639.716560545990	1060.555949057529	206.565020843173	573.464019150098	917.822185036155	45.546617047050	543.979976329008	1089.852231422015	96.970614537075	578.922650840082	1001.354467312453	38.367269325140	617.687305037532	1209.394827374787	41.649216992882	606.845209094998	981.354932889029	122.875606469955	384.827828513300	1042.510370642086	97.371602480787	298.715930382531	1142.753576236987	133.936843939211	313.870514070777	1245.373503961974	48.927733821138	274.894427507408	1004.398991291782	1080.191467560683	228.863847190283	1055.875074810314	823.639733454914	223.904833398411	1198.731647540013	1098.868446461330	773.410234350138	1424.124552393562	976.616629043319	734.139514604606	
55	47.785571428571	907.467073296936	1012.641600167211	526.916467899118	1061.616782132184	1435.199552754555	322.821998373921	1188.204004984548	1366.528303643906	466.705423994252	1134.131620242897	1441.278105855338	651.965782146575	1071.291717107609	1497.550043285842	479.597120074102	1144.347856877163	945.229210390706	615.269054462149	1097.764667842638	966.156837572168	344.810614597557	1160.336739209019	736.758760227909	585.395581467305	1069.420183224770	634.827434149780	650.340708512618	1133.860262348489	575.358998028118	567.204192043185	1123.812467250901	488.987310445460	572.039317616957	1191.592074346269	795.648533641761	369.344129457200	1149.989338301096	664.587573489658	293.766953487091	1261.761857518339	609.695804572439	345.234896014404	1284.502729190676	528.201129235264	336.986981194451	1239.238240486402	452.360822437099	330.192493183920	1119.007367947915	364.386172751093	288.264012084290	1159.230028413219	237.057322062126	335.966540038517	1091.914945897190	403.223797169892	578.827185139279	1016.853935379853	302.599234829193	640.004422024125	1051.943663818447	206.408458461044	573.654773887191	908.771479944592	45.494789442223	544.060973541039	1080.822049462039	97.002600896692	579.047362125684	992.279608752802	38.337311665172	617.732949941480	1200.321874517957	41.645883667689	606.899038126517	1009.911391742913	107.972273412721	383.275075279005	1072.557140880731	87.110139573670	297.008019828325	1170.048043996561	130.293714133472	312.189503090592	1278.170899218360	52.519907592272	272.885898601296	995.037245901455	1080.581575104665	230.402891762194	1031.925282411993	821.844132838222	227.198151687475	1211.268129694403	1102.295227006264	772.556744613152	1444.408407783612	997.967307788826	729.483961638418	
56	47.796785714286	906.717064325335	1012.630598302364	527.313051123036	1060.816882715900	1434.293685134492	322.535317158685	1187.927982156951	1365.654143545557	465.976883692695	1134.980212387867	1441.092564615288	651.262430430015	1071.294264158343	1496.940051198074	479.138997135640	1143.492621592372	944.500882980765	615.534195310018	1096.723670099156	965.528766857335	344.924286876450	1156.651704296497	735.457979133640	585.542481753375	1064.305553325148	634.538213105787	650.734520641991	1127.632107291181	574.193447135997	567.669347044468	1116.412127969069	488.292129494882	572.462284354098	1190.102792997158	795.379116064500	369.703374296309	1148.997115879133	664.284546821767	293.719327383507	1260.236626706946	609.606990350430	346.228799480897	1284.366198983739	530.318518248479	337.742821918701	1243.325986821901	454.135108371218	330.380185282700	1129.851277006113	358.455283853672	287.380167044105	1178.619810464551	233.774323086130	334.937201881441	1084.176192466048	402.832579355342	579.185876372079	1008.666005988584	302.433651412901	640.260051712697	1043.327184393158	206.180382440870	573.813633729434	899.699134823542	45.387958535966	544.130855866574	1071.749514943866	97.003272819478	579.142339299435	983.186699991257	38.284041543525	617.786794691520	1191.246436657333	41.676937738899	606.949816341966	1038.739296456670	94.487333543157	381.442843771991	1102.939371533374	78.149344688614	295.359682355732	1197.159571797661	127.750458051350	310.831489071605	1310.379980288028	57.440555999729	271.898844881675	985.383689217556	1081.303840267166	231.689617767052	1008.917809742436	821.347071011438	230.569758352475	1223.563381040741	1105.967785022106	771.476333928902	1462.982535374395	1020.047316003465	724.598438043192	
